<svg width="366" height="54" viewBox="0 0 366 54" fill="none"
  xmlns="http://www.w3.org/2000/svg">
  <g id="footer-pile">
    <g id="pile">
      <path id="Vector" d="M19.6761 42.4786C28.6889 48.4163 38.1005 42.4786 42.9658 37.4908C43.8431 36.5408 43.7634 35.0365 42.6467 34.324L39.4564 32.1864C39.0576 31.9489 38.579 31.7905 38.1005 31.8697C27.4127 32.6614 9.78592 35.8282 19.6761 42.4786Z" fill="#FFAF66" stroke="#454545" stroke-width="2"/>
      <path id="Vector_2" d="M219.154 20.2317L216.681 20.4692C214.448 20.7067 213.092 22.9235 213.81 24.9819C216.442 32.1864 222.584 41.3702 233.67 40.1827C246.591 38.7576 231.357 27.0404 221.307 20.7067C220.669 20.3109 219.872 20.1525 219.154 20.2317Z" fill="#FFAF66" stroke="#454545" stroke-width="2"/>
      <path id="Vector_3" d="M153.592 48.4956C166.752 52.5333 174.01 39.2326 176.004 32.0281L168.507 29.7322C157.979 34.3241 140.352 44.4579 153.592 48.4956Z" fill="#FFAF66" stroke="#454545" stroke-width="2"/>
      <path id="Vector_4" d="M203.601 48.1788C215.645 46.7537 218.038 34.8782 217.639 27.0403C217.559 25.4569 216.123 24.1902 214.528 24.4277L210.62 24.9027C209.982 24.9819 209.344 25.2985 208.865 25.7736C201.208 34.4031 190.361 49.7622 203.601 48.1788Z" fill="#FFAF66" stroke="#454545" stroke-width="2"/>
      <path id="Vector_5" d="M8.90859 42.637C18.0809 46.5163 24.6212 38.9952 27.5723 33.2949C28.1306 32.1865 27.652 30.7614 26.4556 30.2864L23.345 28.9405C22.8665 28.703 22.3081 28.703 21.8296 28.8613C12.8168 31.8698 -1.14108 38.3618 8.90859 42.637Z" fill="#FFAF66" stroke="#454545" stroke-width="2"/>
      <path id="Vector_6" d="M54.8996 40.8551C64.151 47.5063 74.2076 42.6424 80.2366 37.3994C82.2294 35.7162 82.1221 32.5333 79.9357 31.051L78.3382 29.8164C77.6094 29.3223 76.7438 29.0388 75.8455 29.0367C63.516 29.7807 43.8425 32.828 54.8996 40.8551Z" fill="#FFAF66" stroke="#454545" stroke-width="2"/>
      <path id="Vector_7" d="M327.423 44.7259C343.526 43.484 332.825 33.0313 324.773 27.4428C324.161 27.0288 323.448 26.8218 322.734 26.9253L316.415 27.4428C315.09 27.5463 313.867 28.4777 313.561 29.8231C311.625 36.2396 312.44 45.8643 327.423 44.7259Z" fill="#FFAF66" stroke="#454545" stroke-width="2"/>
      <path id="Vector_8" d="M246.751 40.8159C263.101 37.9658 250.42 30.4446 241.008 26.5652C240.21 26.2485 239.333 26.1694 238.456 26.3277L233.271 27.2778C231.038 27.6736 229.443 29.5737 229.523 31.7905C229.682 37.0949 233.192 43.191 246.751 40.8159Z" fill="#FFAF66" stroke="#454545" stroke-width="2"/>
      <path id="Vector_9" d="M354.426 40.1035C365.433 36.3825 355.782 31.7906 349.002 29.8113C348.603 29.7322 348.204 29.7322 347.806 29.8113L343.339 31.3156C342.382 31.6323 341.824 32.5823 341.824 33.6907C341.983 38.0451 344.615 43.4287 354.426 40.1035Z" fill="#FFAF66" stroke="#454545" stroke-width="2"/>
      <path id="Vector_10" d="M135.566 46.5163C148.408 51.4249 156.623 38.6785 159.095 31.7115L151.757 28.8613C141.07 32.6615 122.725 41.5286 135.566 46.5163Z" fill="#FFAF66" stroke="#454545" stroke-width="2"/>
      <path id="Vector_11" d="M189.244 43.7455C206.393 41.212 191.956 32.7408 182.624 28.7822L172.814 30.2073C171.219 35.8284 172.176 46.2789 189.244 43.7455Z" fill="#FFAF66" stroke="#454545" stroke-width="2"/>
      <path id="Vector_12" d="M297.595 41.6773C306.972 45.6232 313.93 38.6193 317.358 32.7005C318.366 31.0235 317.559 28.7546 315.744 27.9654L313.829 27.1763C313.022 26.8803 312.215 26.7817 311.409 27.0776C301.528 30.333 286.807 37.1396 297.595 41.6773Z" fill="#FFAF66" stroke="#454545" stroke-width="2"/>
      <path id="Vector_13" d="M96.2449 42.3994C105.816 48.4164 115.786 42.3994 121.05 37.1741C122.167 36.0658 122.007 34.4032 120.651 33.5323L117.62 31.6322C117.062 31.3155 116.344 31.078 115.626 31.1572C104.141 32.2656 85.7167 35.7491 96.2449 42.3994Z" fill="#FFAF66" stroke="#454545" stroke-width="2"/>
      <path id="Vector_14" d="M191.717 30.0488C180.311 32.5823 189.803 38.9159 195.944 41.766L202.484 40.341C203.601 35.8283 203.122 27.5154 191.717 30.0488Z" fill="#FFAF66" stroke="#454545" stroke-width="2"/>
      <path id="Vector_15" d="M197.619 22.1318L196.423 22.5276C194.668 23.0818 193.87 25.0611 194.668 26.7237C197.141 31.6322 202.165 37.2533 209.663 34.7199C218.516 31.7114 207.35 25.3778 199.773 22.2109C199.055 21.8943 198.337 21.8151 197.619 22.1318Z" fill="#FFAF66" stroke="#454545" stroke-width="2"/>
      <path id="Vector_16" d="M279.851 43.1912C291.496 39.4702 282.483 33.8491 275.384 31.0781C274.427 30.6823 273.39 30.6823 272.433 30.9989L269.642 31.8698C267.727 32.5032 266.451 34.2449 266.611 36.2242C266.93 41.1328 269.881 46.358 279.851 43.1912Z" fill="#FFAF66" stroke="#454545" stroke-width="2"/>
      <path id="Vector_17" d="M145.536 32.4239C156.782 39.7076 168.587 30.2863 173.053 24.7444L166.593 20.5483C154.868 21.4984 134.29 25.1402 145.536 32.4239Z" fill="#FFAF66" stroke="#454545" stroke-width="2"/>
      <path id="Vector_18" d="M169.623 33.1366C180.87 40.4202 192.674 30.999 197.14 25.457L190.68 21.261C179.035 22.211 158.377 25.8529 169.623 33.1366Z" fill="#FFAF66" stroke="#454545" stroke-width="2"/>
      <path id="Vector_19" d="M189.563 28.9405C200.809 36.2242 212.614 26.8029 217.08 21.261L210.62 17.0649C198.895 17.9358 178.237 21.5777 189.563 28.9405Z" fill="#FFAF66" stroke="#454545" stroke-width="2"/>
      <path id="Vector_20" d="M168.985 23.9527C180.231 31.2364 192.036 21.8151 196.502 16.2732L190.042 12.0771C178.317 13.0272 157.66 16.669 168.985 23.9527Z" fill="#FFAF66" stroke="#454545" stroke-width="2"/>
      <path id="Vector_21" d="M186.453 5.74343L184.299 7.32684C182.544 8.5144 182.465 11.0479 184.06 12.3938C189.882 17.4607 199.852 22.6067 209.024 16.1148C219.553 8.59357 200.41 5.74343 188.526 5.18924C187.809 5.11007 187.091 5.34758 186.453 5.74343Z" fill="#FFAF66" stroke="#454545" stroke-width="2"/>
      <path id="Vector_22" d="M196.582 14.1358L194.11 15.8775C192.515 16.9859 192.355 19.361 193.87 20.6277C199.613 25.6947 209.743 31.0783 218.995 24.5071C229.603 16.9859 210.381 14.1358 198.497 13.5816C197.858 13.5024 197.141 13.7399 196.582 14.1358Z" fill="#FFAF66" stroke="#454545" stroke-width="2"/>
      <path id="Vector_23" d="M158.298 21.8944C169.544 29.1781 181.348 19.7568 185.814 14.2148L179.354 10.0188C167.709 10.8897 147.051 14.6107 158.298 21.8944Z" fill="#FFAF66" stroke="#454545" stroke-width="2"/>
      <path id="Vector_24" d="M186.453 19.2025C200.331 15.7982 189.962 8.51449 181.986 4.79347C181.109 4.39762 180.152 4.31845 179.195 4.55596L174.968 5.58518C173.213 6.0602 171.937 7.56444 171.777 9.38536C171.538 15.1648 174.17 22.211 186.453 19.2025Z" fill="#FFAF66" stroke="#454545" stroke-width="2"/>
      <path id="Vector_25" d="M181.667 45.2495C191.238 32.4239 175.366 28.5445 166.194 28.1487L160.69 35.4324C163.721 44.0619 172.096 58.0751 181.667 45.2495Z" fill="#FFAF66" stroke="#454545" stroke-width="2"/>
      <path id="Vector_26" d="M204.638 39.8659C213.252 53.3249 222.663 40.0242 226.253 31.6322L221.307 23.9526C212.135 23.6359 196.024 26.4069 204.638 39.8659Z" fill="#FFAF66" stroke="#454545" stroke-width="2"/>
    </g>
  </g>
</svg>
