<svg width="24" height="19" viewBox="0 0 24 19" fill="none" xmlns="http://www.w3.org/2000/svg">
<path d="M4.75 0.75L4.75 18.25M9.25 18.25L0.249999 18.25M9.25 1.25L0.25 1.25" stroke="#FFAF66"/>
<rect x="23.25" y="15" width="14" height="10" rx="3" transform="rotate(-180 23.25 15)" fill="#FFAF66"/>
<path d="M18.0523 11.26C18.0523 11.8733 18.089 12.35 18.1623 12.69C18.1223 12.79 18.059 12.87 17.9723 12.93C17.8923 12.99 17.7957 13.02 17.6823 13.02C17.0023 13.0067 16.369 13 15.7823 13C15.1423 13 14.569 13.0067 14.0623 13.02C13.9357 12.8467 13.8723 12.61 13.8723 12.31C14.2323 11.9633 14.7423 11.5067 15.4023 10.94C15.8023 10.5933 16.0723 10.31 16.2123 10.09C16.3523 9.87 16.4223 9.63333 16.4223 9.38C16.4223 9.12 16.359 8.92 16.2323 8.78C16.1057 8.64 15.9223 8.57 15.6823 8.57C15.449 8.57 15.2723 8.66333 15.1523 8.85C15.0323 9.03 14.9423 9.36667 14.8823 9.86C14.589 9.86 14.3323 9.82333 14.1123 9.75C14.1323 9.59 14.1423 9.39 14.1423 9.15C14.1423 8.86333 14.1223 8.62 14.0823 8.42C14.349 8.26 14.6423 8.14 14.9623 8.06C15.2823 7.98 15.659 7.94 16.0923 7.94C16.6723 7.94 17.1157 8.04333 17.4223 8.25C17.729 8.45667 17.8823 8.77 17.8823 9.19C17.8823 9.40333 17.839 9.59667 17.7523 9.77C17.6723 9.93667 17.5423 10.1067 17.3623 10.28C17.1823 10.4467 16.9223 10.6567 16.5823 10.91C16.2557 11.1567 15.9157 11.43 15.5623 11.73H16.5623C16.7957 11.73 16.9623 11.72 17.0623 11.7C17.1623 11.6733 17.2323 11.6233 17.2723 11.55C17.319 11.4767 17.3523 11.3533 17.3723 11.18C17.6857 11.18 17.9123 11.2067 18.0523 11.26Z" fill="white"/>
</svg>
