<svg width="836" height="671" viewBox="0 0 836 671" fill="none" xmlns="http://www.w3.org/2000/svg">
<rect width="836" height="671" fill="#E5E5E5"/>
<g id="venn-total">
<g id="circle-animate">
<circle id="fill-2" cx="208" cy="463" r="200" fill="white"/>
<circle id="line-2" cx="208" cy="463" r="199.5" stroke="#454545"/>
<circle id="orange-2" cx="208" cy="463" r="207.5" stroke="#FFAF66" stroke-dasharray="10 4"/>
</g>
<g id="circle-develop">
<circle id="fill-3" cx="628" cy="463" r="200" fill="white"/>
<circle id="line-3" cx="628" cy="463" r="199.5" stroke="#454545"/>
<circle id="orange-3" cx="628" cy="463" r="207.5" stroke="#FFAF66" stroke-dasharray="10 4"/>
</g>
<g id="circle-design">
<circle id="fill-1" cx="418" cy="208" r="200" fill="white"/>
<circle id="line-1" cx="418" cy="208" r="199.5" stroke="#454545"/>
<circle id="orange-1" cx="418" cy="208" r="207.5" stroke="#FFAF66" stroke-dasharray="10 4"/>
</g>
<g id="design-set">
<g id="design-icon">
<g id="design-icon-ruler">
<path id="Rectangle 6" d="M386.414 103.276L442.276 47.4142L451.468 56.6066L395.607 112.468L386.414 103.276Z" fill="white" stroke="#454545" stroke-width="2"/>
<line id="Line 6" x1="394.192" y1="103.983" x2="399.142" y2="108.932" stroke="#454545" stroke-width="2"/>
<line id="Line 10" x1="408.335" y1="89.8406" x2="413.284" y2="94.7904" stroke="#454545" stroke-width="2"/>
<line id="Line 14" x1="422.477" y1="75.6984" x2="427.426" y2="80.6482" stroke="#454545" stroke-width="2"/>
<line id="Line 18" x1="436.619" y1="61.5563" x2="441.568" y2="66.5061" stroke="#454545" stroke-width="2"/>
<line id="Line 8" x1="401.263" y1="96.9117" x2="406.213" y2="101.861" stroke="#454545" stroke-width="2"/>
<line id="Line 11" x1="415.405" y1="82.7696" x2="420.355" y2="87.7193" stroke="#454545" stroke-width="2"/>
<line id="Line 15" x1="429.548" y1="68.6274" x2="434.498" y2="73.5771" stroke="#454545" stroke-width="2"/>
<line id="Line 19" x1="443.69" y1="54.4853" x2="448.64" y2="59.435" stroke="#454545" stroke-width="2"/>
<line id="Line 7" x1="399.849" y1="102.569" x2="402.678" y2="105.397" stroke="#454545" stroke-width="2"/>
<line id="Line 12" x1="413.991" y1="88.4264" x2="416.82" y2="91.2549" stroke="#454545" stroke-width="2"/>
<line id="Line 16" x1="428.133" y1="74.2842" x2="430.962" y2="77.1127" stroke="#454545" stroke-width="2"/>
<line id="Line 20" x1="442.275" y1="60.1421" x2="445.104" y2="62.9706" stroke="#454545" stroke-width="2"/>
<line id="Line 9" x1="406.92" y1="95.4975" x2="409.749" y2="98.3259" stroke="#454545" stroke-width="2"/>
<line id="Line 13" x1="421.063" y1="81.3553" x2="423.891" y2="84.1837" stroke="#454545" stroke-width="2"/>
<line id="Line 17" x1="435.205" y1="67.2132" x2="438.033" y2="70.0416" stroke="#454545" stroke-width="2"/>
</g>
<g id="design-icon-pencil">
<path id="Rectangle 7" d="M390.098 51.0984L405.419 57.2266L449.468 101.276C451.03 102.838 451.03 105.37 449.468 106.933L445.932 110.468C444.37 112.03 441.838 112.03 440.275 110.468L396.226 66.419L390.098 51.0984Z" fill="white" stroke="#454545" stroke-width="2"/>
<path id="Line 4" d="M405.273 57.0815L396.081 66.2739" stroke="#454545" stroke-width="2"/>
<path id="Line 5" d="M447.346 99.1543L438.154 108.347" stroke="#454545" stroke-width="2"/>
</g>
</g>
<g id="design-word">
<path d="M356.029 148.072C356.029 147.328 356.089 146.788 356.209 146.452C356.785 146.404 357.229 146.308 357.541 146.164C357.853 146.02 358.069 145.756 358.189 145.372C358.333 144.988 358.405 144.412 358.405 143.644V134.176C358.405 133.48 358.333 132.952 358.189 132.592C358.069 132.232 357.853 131.98 357.541 131.836C357.253 131.692 356.809 131.596 356.209 131.548C356.113 131.164 356.065 130.624 356.065 129.928C357.409 129.976 358.957 130 360.709 130C361.501 130 362.101 129.988 362.509 129.964L364.417 129.928C367.897 129.928 370.753 130.54 372.985 131.764C375.241 132.988 376.369 135.244 376.369 138.532C376.369 142.276 375.097 144.796 372.553 146.092C370.009 147.364 367.285 148 364.381 148C360.925 148 358.141 148.024 356.029 148.072ZM364.525 146.38C366.253 146.38 367.705 146.188 368.881 145.804C370.081 145.396 371.029 144.652 371.725 143.572C372.445 142.492 372.805 140.968 372.805 139C372.805 136.336 371.965 134.416 370.285 133.24C368.629 132.064 366.517 131.476 363.949 131.476C362.965 131.476 362.221 131.548 361.717 131.692V143.572C361.717 144.34 361.789 144.928 361.933 145.336C362.077 145.72 362.341 145.996 362.725 146.164C363.133 146.308 363.733 146.38 364.525 146.38Z" fill="#454545"/>
<path d="M395.784 142.888C396.432 143.008 396.96 143.272 397.368 143.68C396.936 144.808 396.612 146.26 396.396 148.036L389.448 148C385.992 148 383.208 148.024 381.096 148.072C381.096 147.328 381.156 146.788 381.276 146.452C381.876 146.404 382.32 146.308 382.608 146.164C382.92 146.02 383.136 145.756 383.256 145.372C383.376 144.988 383.436 144.412 383.436 143.644V134.176C383.436 133.48 383.364 132.952 383.22 132.592C383.1 132.232 382.884 131.98 382.572 131.836C382.284 131.692 381.852 131.596 381.276 131.548C381.156 131.188 381.096 130.648 381.096 129.928C382.824 129.976 384.708 130 386.748 130C391.164 130 394.116 129.976 395.604 129.928C395.868 132.184 396.096 133.672 396.288 134.392C395.88 134.656 395.34 134.788 394.668 134.788C394.572 133.78 394.152 132.988 393.408 132.412C392.688 131.836 391.404 131.548 389.556 131.548H386.748V138.172H388.548C389.82 138.172 390.696 138.028 391.176 137.74C391.68 137.452 391.944 136.924 391.968 136.156C392.496 135.988 393.048 135.904 393.624 135.904C393.576 136.504 393.552 137.512 393.552 138.928C393.552 140.464 393.576 141.508 393.624 142.06C392.976 142.06 392.448 141.988 392.04 141.844C391.968 141.052 391.68 140.512 391.176 140.224C390.696 139.936 389.82 139.792 388.548 139.792H386.748V143.572C386.748 144.34 386.82 144.928 386.964 145.336C387.132 145.72 387.408 145.996 387.792 146.164C388.2 146.308 388.8 146.38 389.592 146.38H389.808C391.2 146.38 392.268 146.26 393.012 146.02C393.78 145.78 394.344 145.432 394.704 144.976C395.088 144.496 395.448 143.8 395.784 142.888Z" fill="#454545"/>
<path d="M409.783 148.252C408.463 148.252 407.263 148.12 406.183 147.856C405.127 147.592 403.975 147.196 402.727 146.668C402.991 145.06 403.087 143.668 403.015 142.492C403.543 142.324 404.191 142.24 404.959 142.24C405.007 143.728 405.475 144.808 406.363 145.48C407.275 146.152 408.547 146.488 410.179 146.488C411.571 146.488 412.663 146.272 413.455 145.84C414.271 145.408 414.679 144.832 414.679 144.112C414.679 143.608 414.475 143.176 414.067 142.816C413.683 142.432 413.203 142.12 412.627 141.88C412.075 141.616 411.259 141.292 410.179 140.908C408.691 140.404 407.491 139.936 406.579 139.504C405.691 139.048 404.911 138.436 404.239 137.668C403.591 136.876 403.267 135.892 403.267 134.716C403.267 133.108 403.867 131.884 405.067 131.044C406.291 130.204 407.959 129.784 410.071 129.784C411.199 129.784 412.315 129.892 413.419 130.108C414.547 130.324 415.423 130.6 416.047 130.936C416.023 131.2 416.011 131.608 416.011 132.16C416.011 133.24 416.083 134.092 416.227 134.716C415.723 134.98 415.063 135.112 414.247 135.112C413.911 133.744 413.359 132.796 412.591 132.268C411.847 131.716 410.923 131.44 409.819 131.44C408.763 131.44 407.899 131.62 407.227 131.98C406.579 132.34 406.255 132.868 406.255 133.564C406.255 134.356 406.639 134.992 407.407 135.472C408.175 135.952 409.375 136.48 411.007 137.056C412.399 137.536 413.539 137.992 414.427 138.424C415.315 138.856 416.071 139.444 416.695 140.188C417.319 140.908 417.631 141.82 417.631 142.924C417.631 144.508 416.983 145.792 415.687 146.776C414.391 147.76 412.423 148.252 409.783 148.252Z" fill="#454545"/>
<path d="M423.002 148.072C423.002 147.328 423.062 146.788 423.182 146.452C423.782 146.404 424.226 146.308 424.514 146.164C424.826 146.02 425.042 145.768 425.162 145.408C425.282 145.048 425.342 144.508 425.342 143.788V134.176C425.342 133.48 425.282 132.952 425.162 132.592C425.042 132.232 424.826 131.98 424.514 131.836C424.226 131.692 423.782 131.596 423.182 131.548C423.062 131.188 423.002 130.648 423.002 129.928C424.538 129.976 425.882 130 427.034 130C427.994 130 429.314 129.976 430.994 129.928C430.994 130.672 430.946 131.212 430.85 131.548C429.986 131.596 429.398 131.788 429.086 132.124C428.798 132.46 428.654 133.144 428.654 134.176V143.788C428.654 144.82 428.798 145.516 429.086 145.876C429.398 146.212 429.986 146.404 430.85 146.452C430.946 146.812 430.994 147.352 430.994 148.072C429.362 148.024 428.042 148 427.034 148C425.834 148 424.49 148.024 423.002 148.072Z" fill="#454545"/>
<path d="M446.187 148.252C444.123 148.252 442.299 147.856 440.715 147.064C439.131 146.272 437.895 145.168 437.007 143.752C436.143 142.312 435.711 140.668 435.711 138.82C435.711 136.9 436.227 135.268 437.259 133.924C438.291 132.556 439.647 131.524 441.327 130.828C443.007 130.132 444.807 129.784 446.727 129.784C448.191 129.784 449.583 129.904 450.903 130.144C452.247 130.36 453.375 130.672 454.287 131.08C454.071 131.992 453.963 133.372 453.963 135.22C453.531 135.412 452.919 135.508 452.127 135.508C452.055 133.996 451.563 132.928 450.651 132.304C449.739 131.68 448.503 131.368 446.943 131.368C445.287 131.368 443.883 131.68 442.731 132.304C441.603 132.928 440.763 133.768 440.211 134.824C439.659 135.856 439.383 136.984 439.383 138.208C439.383 140.656 440.019 142.648 441.291 144.184C442.587 145.72 444.423 146.488 446.799 146.488C447.543 146.488 448.119 146.476 448.527 146.452C448.935 146.428 449.355 146.356 449.787 146.236C450.171 146.14 450.447 145.96 450.615 145.696C450.783 145.408 450.867 144.94 450.867 144.292V143.176C450.867 142.48 450.807 141.988 450.687 141.7C450.567 141.388 450.327 141.184 449.967 141.088C449.607 140.968 449.019 140.896 448.203 140.872C448.059 140.44 447.987 139.888 447.987 139.216C448.539 139.264 449.847 139.288 451.911 139.288C453.951 139.288 455.211 139.264 455.691 139.216C455.691 139.888 455.631 140.44 455.511 140.872C455.055 140.896 454.731 140.968 454.539 141.088C454.347 141.184 454.215 141.376 454.143 141.664C454.071 141.928 454.035 142.36 454.035 142.96V143.86C454.035 144.412 454.059 144.856 454.107 145.192C454.179 145.504 454.299 145.84 454.467 146.2C453.507 146.824 452.307 147.328 450.867 147.712C449.451 148.072 447.891 148.252 446.187 148.252Z" fill="#454545"/>
<path d="M478.958 130C479.87 130 480.878 129.976 481.982 129.928C481.982 130.648 481.934 131.188 481.838 131.548C481.334 131.596 480.95 131.728 480.686 131.944C480.422 132.16 480.23 132.532 480.11 133.06C480.014 133.564 479.966 134.32 479.966 135.328V148.036C479.654 148.18 479.162 148.252 478.49 148.252L465.566 133.96V142.6C465.566 143.632 465.626 144.412 465.746 144.94C465.89 145.468 466.118 145.84 466.43 146.056C466.742 146.272 467.198 146.404 467.798 146.452C467.918 146.836 467.978 147.376 467.978 148.072C466.682 148.024 465.614 148 464.774 148C463.646 148 462.554 148.024 461.498 148.072C461.498 147.376 461.558 146.836 461.678 146.452C462.278 146.404 462.722 146.272 463.01 146.056C463.322 145.84 463.538 145.468 463.658 144.94C463.802 144.412 463.874 143.632 463.874 142.6V132.088L463.838 132.052C463.67 131.884 463.454 131.776 463.19 131.728C462.926 131.656 462.422 131.596 461.678 131.548C461.558 131.116 461.498 130.576 461.498 129.928C462.362 129.976 463.202 130 464.018 130C464.762 130 465.518 129.976 466.286 129.928L478.274 143.356V135.328C478.274 134.32 478.202 133.564 478.058 133.06C477.938 132.532 477.722 132.16 477.41 131.944C477.098 131.728 476.63 131.596 476.006 131.548C475.91 130.996 475.862 130.456 475.862 129.928C477.062 129.976 478.094 130 478.958 130Z" fill="#454545"/>
</g>
</g>
<g id="develop-set">
<g id="develop-icon">
<path id="Vector 4" d="M639.477 423.119L625.597 455.97" stroke="#454545" stroke-width="2"/>
<rect id="Rectangle 8" x="596.06" y="407" width="73.8806" height="60" rx="4" stroke="#454545" stroke-width="2"/>
<line id="Line 21" x1="595.06" y1="415.179" x2="670.94" y2="415.179" stroke="#454545" stroke-width="2"/>
<circle id="Ellipse 8" cx="601.075" cy="411.089" r="1.38806" fill="#454545"/>
<circle id="Ellipse 9" cx="606.627" cy="411.089" r="1.38806" fill="#454545"/>
<circle id="Ellipse 10" cx="612.179" cy="411.089" r="1.38806" fill="#454545"/>
<path id="Vector 2" d="M617.731 427.746L606.164 439.314L617.731 450.881" stroke="#454545" stroke-width="2"/>
<path id="Vector 3" d="M645.955 450.881L657.522 439.313L645.955 427.746" stroke="#454545" stroke-width="2"/>
</g>
<g id="develop-word">
<path d="M557.479 512.072C557.479 511.328 557.539 510.788 557.659 510.452C558.235 510.404 558.679 510.308 558.991 510.164C559.303 510.02 559.519 509.756 559.639 509.372C559.783 508.988 559.855 508.412 559.855 507.644V498.176C559.855 497.48 559.783 496.952 559.639 496.592C559.519 496.232 559.303 495.98 558.991 495.836C558.703 495.692 558.259 495.596 557.659 495.548C557.563 495.164 557.515 494.624 557.515 493.928C558.859 493.976 560.407 494 562.159 494C562.951 494 563.551 493.988 563.959 493.964L565.867 493.928C569.347 493.928 572.203 494.54 574.435 495.764C576.691 496.988 577.819 499.244 577.819 502.532C577.819 506.276 576.547 508.796 574.003 510.092C571.459 511.364 568.735 512 565.831 512C562.375 512 559.591 512.024 557.479 512.072ZM565.975 510.38C567.703 510.38 569.155 510.188 570.331 509.804C571.531 509.396 572.479 508.652 573.175 507.572C573.895 506.492 574.255 504.968 574.255 503C574.255 500.336 573.415 498.416 571.735 497.24C570.079 496.064 567.967 495.476 565.399 495.476C564.415 495.476 563.671 495.548 563.167 495.692V507.572C563.167 508.34 563.239 508.928 563.383 509.336C563.527 509.72 563.791 509.996 564.175 510.164C564.583 510.308 565.183 510.38 565.975 510.38Z" fill="#454545"/>
<path d="M597.233 506.888C597.881 507.008 598.409 507.272 598.817 507.68C598.385 508.808 598.061 510.26 597.845 512.036L590.897 512C587.441 512 584.657 512.024 582.545 512.072C582.545 511.328 582.605 510.788 582.725 510.452C583.325 510.404 583.769 510.308 584.057 510.164C584.369 510.02 584.585 509.756 584.705 509.372C584.825 508.988 584.885 508.412 584.885 507.644V498.176C584.885 497.48 584.813 496.952 584.669 496.592C584.549 496.232 584.333 495.98 584.021 495.836C583.733 495.692 583.301 495.596 582.725 495.548C582.605 495.188 582.545 494.648 582.545 493.928C584.273 493.976 586.157 494 588.197 494C592.613 494 595.565 493.976 597.053 493.928C597.317 496.184 597.545 497.672 597.737 498.392C597.329 498.656 596.789 498.788 596.117 498.788C596.021 497.78 595.601 496.988 594.857 496.412C594.137 495.836 592.853 495.548 591.005 495.548H588.197V502.172H589.997C591.269 502.172 592.145 502.028 592.625 501.74C593.129 501.452 593.393 500.924 593.417 500.156C593.945 499.988 594.497 499.904 595.073 499.904C595.025 500.504 595.001 501.512 595.001 502.928C595.001 504.464 595.025 505.508 595.073 506.06C594.425 506.06 593.897 505.988 593.489 505.844C593.417 505.052 593.129 504.512 592.625 504.224C592.145 503.936 591.269 503.792 589.997 503.792H588.197V507.572C588.197 508.34 588.269 508.928 588.413 509.336C588.581 509.72 588.857 509.996 589.241 510.164C589.649 510.308 590.249 510.38 591.041 510.38H591.257C592.649 510.38 593.717 510.26 594.461 510.02C595.229 509.78 595.793 509.432 596.153 508.976C596.537 508.496 596.897 507.8 597.233 506.888Z" fill="#454545"/>
<path d="M619.728 494C620.664 494 621.732 493.976 622.932 493.928C622.932 494.576 622.872 495.092 622.752 495.476C621.792 495.644 620.916 496.64 620.124 498.464C618.228 502.64 616.02 507.164 613.5 512.036C613.14 512.156 612.672 512.216 612.096 512.216C609.864 507.368 607.68 502.88 605.544 498.752C605.016 497.696 604.632 496.988 604.392 496.628C604.176 496.244 603.948 495.968 603.708 495.8C603.492 495.632 603.192 495.524 602.808 495.476C602.688 495.14 602.628 494.624 602.628 493.928C603.78 493.976 605.1 494 606.588 494C607.524 494 608.856 493.976 610.584 493.928C610.584 494.528 610.524 495.044 610.404 495.476C609.78 495.524 609.312 495.62 609 495.764C608.712 495.908 608.568 496.148 608.568 496.484C608.568 496.916 608.796 497.54 609.252 498.356C610.932 501.476 612.432 504.548 613.752 507.572C615.72 503.732 617.196 500.708 618.18 498.5C618.468 497.852 618.612 497.3 618.612 496.844C618.612 496.028 618.108 495.572 617.1 495.476C616.98 495.14 616.92 494.624 616.92 493.928C618.12 493.976 619.056 494 619.728 494Z" fill="#454545"/>
<path d="M641.987 506.888C642.635 507.008 643.163 507.272 643.571 507.68C643.139 508.808 642.815 510.26 642.599 512.036L635.651 512C632.195 512 629.411 512.024 627.299 512.072C627.299 511.328 627.359 510.788 627.479 510.452C628.079 510.404 628.523 510.308 628.811 510.164C629.123 510.02 629.339 509.756 629.459 509.372C629.579 508.988 629.639 508.412 629.639 507.644V498.176C629.639 497.48 629.567 496.952 629.423 496.592C629.303 496.232 629.087 495.98 628.775 495.836C628.487 495.692 628.055 495.596 627.479 495.548C627.359 495.188 627.299 494.648 627.299 493.928C629.027 493.976 630.911 494 632.951 494C637.367 494 640.319 493.976 641.807 493.928C642.071 496.184 642.299 497.672 642.491 498.392C642.083 498.656 641.543 498.788 640.871 498.788C640.775 497.78 640.355 496.988 639.611 496.412C638.891 495.836 637.607 495.548 635.759 495.548H632.951V502.172H634.751C636.023 502.172 636.899 502.028 637.379 501.74C637.883 501.452 638.147 500.924 638.171 500.156C638.699 499.988 639.251 499.904 639.827 499.904C639.779 500.504 639.755 501.512 639.755 502.928C639.755 504.464 639.779 505.508 639.827 506.06C639.179 506.06 638.651 505.988 638.243 505.844C638.171 505.052 637.883 504.512 637.379 504.224C636.899 503.936 636.023 503.792 634.751 503.792H632.951V507.572C632.951 508.34 633.023 508.928 633.167 509.336C633.335 509.72 633.611 509.996 633.995 510.164C634.403 510.308 635.003 510.38 635.795 510.38H636.011C637.403 510.38 638.471 510.26 639.215 510.02C639.983 509.78 640.547 509.432 640.907 508.976C641.291 508.496 641.651 507.8 641.987 506.888Z" fill="#454545"/>
<path d="M657.21 510.38C658.338 510.38 659.226 510.272 659.874 510.056C660.546 509.816 661.074 509.456 661.458 508.976C661.866 508.472 662.25 507.776 662.61 506.888C663.258 507.008 663.786 507.272 664.194 507.68C663.762 508.808 663.438 510.26 663.222 512.036L656.85 512C653.394 512 650.61 512.024 648.498 512.072C648.498 511.328 648.558 510.788 648.678 510.452C649.254 510.404 649.698 510.308 650.01 510.164C650.322 510.02 650.538 509.756 650.658 509.372C650.802 508.988 650.874 508.412 650.874 507.644V498.176C650.874 497.48 650.802 496.952 650.658 496.592C650.538 496.232 650.322 495.98 650.01 495.836C649.722 495.692 649.278 495.596 648.678 495.548C648.582 495.164 648.534 494.624 648.534 493.928C650.262 493.976 651.594 494 652.53 494C653.514 494 654.846 493.976 656.526 493.928C656.526 494.648 656.466 495.188 656.346 495.548C655.506 495.596 654.93 495.8 654.618 496.16C654.33 496.496 654.186 497.18 654.186 498.212V507.572C654.186 508.34 654.258 508.928 654.402 509.336C654.546 509.72 654.81 509.996 655.194 510.164C655.602 510.308 656.202 510.38 656.994 510.38H657.21Z" fill="#454545"/>
<path d="M678.081 512.324C676.017 512.324 674.193 511.94 672.609 511.172C671.025 510.404 669.789 509.324 668.901 507.932C668.037 506.54 667.605 504.92 667.605 503.072C667.605 501.248 668.037 499.628 668.901 498.212C669.789 496.796 671.025 495.704 672.609 494.936C674.217 494.144 676.065 493.748 678.153 493.748C680.217 493.748 682.041 494.132 683.625 494.9C685.209 495.668 686.433 496.76 687.297 498.176C688.185 499.568 688.629 501.176 688.629 503C688.629 504.848 688.185 506.48 687.297 507.896C686.433 509.288 685.197 510.38 683.589 511.172C682.005 511.94 680.169 512.324 678.081 512.324ZM678.585 510.668C680.529 510.668 682.065 510.02 683.193 508.724C684.345 507.428 684.921 505.7 684.921 503.54C684.921 501.98 684.609 500.588 683.985 499.364C683.361 498.116 682.485 497.144 681.357 496.448C680.253 495.752 679.005 495.404 677.613 495.404C675.669 495.404 674.133 496.064 673.005 497.384C671.877 498.68 671.313 500.396 671.313 502.532C671.313 504.14 671.625 505.568 672.249 506.816C672.873 508.04 673.737 508.988 674.841 509.66C675.945 510.332 677.193 510.668 678.585 510.668Z" fill="#454545"/>
<path d="M701.457 504.08C702.729 504.08 703.761 503.768 704.553 503.144C705.369 502.52 705.777 501.488 705.777 500.048C705.777 498.68 705.345 497.6 704.481 496.808C703.641 495.992 702.345 495.584 700.593 495.584C700.137 495.584 699.609 495.656 699.009 495.8V507.392C699.009 508.52 699.225 509.3 699.657 509.732C700.089 510.164 700.833 510.404 701.889 510.452C702.009 510.812 702.069 511.352 702.069 512.072C700.725 512.024 699.333 512 697.893 512C696.069 512 694.557 512.024 693.357 512.072C693.357 511.328 693.417 510.788 693.537 510.452C694.377 510.404 694.941 510.212 695.229 509.876C695.541 509.516 695.697 508.82 695.697 507.788V498.176C695.697 497.48 695.637 496.952 695.517 496.592C695.397 496.232 695.181 495.98 694.869 495.836C694.581 495.692 694.137 495.596 693.537 495.548C693.417 495.188 693.357 494.648 693.357 493.928C695.613 493.976 697.089 494 697.785 494L702.105 493.928C704.577 493.928 706.389 494.444 707.541 495.476C708.693 496.508 709.269 497.828 709.269 499.436C709.269 500.588 708.993 501.644 708.441 502.604C707.889 503.564 707.061 504.332 705.957 504.908C704.877 505.484 703.569 505.772 702.033 505.772C701.097 505.772 700.365 505.688 699.837 505.52C699.789 505.184 699.765 504.932 699.765 504.764C699.765 504.452 699.801 504.188 699.873 503.972C700.233 504.044 700.761 504.08 701.457 504.08Z" fill="#454545"/>
</g>
</g>
<g id="animate-set">
<g id="animate-icon">
<circle id="Ellipse 15" cx="218.5" cy="441.5" r="21.5" fill="white" stroke="#454545" stroke-width="2"/>
<path id="animate-icon-ghost1" d="M203 422C195.374 425.139 190 432.688 190 441.5C190 450.312 195.374 457.861 203 461" stroke="#454545" stroke-width="2" stroke-linecap="round"/>
<path id="animate-icon-ghost2" d="M197 422C189.374 425.139 184 432.688 184 441.5C184 450.312 189.374 457.861 197 461" stroke="#454545" stroke-width="2" stroke-linecap="round"/>
<g id="animate-icon-lines">
<path id="Line 22" d="M180 442L161 442" stroke="#454545" stroke-width="2" stroke-linecap="round"/>
<path id="Line 23" d="M181 435L168 435" stroke="#454545" stroke-width="2" stroke-linecap="round"/>
<path id="Line 24" d="M181 450L171 450" stroke="#454545" stroke-width="2" stroke-linecap="round"/>
</g>
</g>
<g id="animate-word">
<path d="M145.68 509.452C145.8 509.812 145.86 510.352 145.86 511.072C144.9 511.024 143.664 511 142.152 511C140.568 511 139.296 511.024 138.336 511.072C138.336 510.328 138.408 509.788 138.552 509.452C139.104 509.38 139.488 509.284 139.704 509.164C139.944 509.02 140.064 508.816 140.064 508.552C140.064 508.336 139.944 507.964 139.704 507.436L138.984 505.888C135.528 505.888 132.804 505.948 130.812 506.068L130.416 507.004C130.176 507.556 130.056 507.988 130.056 508.3C130.056 508.972 130.548 509.356 131.532 509.452C131.676 509.884 131.748 510.424 131.748 511.072C130.836 511.024 129.84 511 128.76 511C127.824 511 126.972 511.024 126.204 511.072C126.204 510.496 126.276 509.956 126.42 509.452C126.948 509.356 127.356 509.14 127.644 508.804C127.932 508.444 128.316 507.736 128.796 506.68L134.988 492.964C135.444 492.868 135.924 492.82 136.428 492.82L143.052 506.572C143.58 507.676 144.024 508.42 144.384 508.804C144.768 509.188 145.2 509.404 145.68 509.452ZM138.264 504.412L136.104 499.876C135.48 498.604 135.048 497.596 134.808 496.852C134.616 497.452 134.376 498.052 134.088 498.652C133.824 499.228 133.656 499.588 133.584 499.732L131.532 504.412H138.264Z" fill="#454545"/>
<path d="M167.667 493C168.579 493 169.587 492.976 170.691 492.928C170.691 493.648 170.643 494.188 170.547 494.548C170.043 494.596 169.659 494.728 169.395 494.944C169.131 495.16 168.939 495.532 168.819 496.06C168.723 496.564 168.675 497.32 168.675 498.328V511.036C168.363 511.18 167.871 511.252 167.199 511.252L154.275 496.96V505.6C154.275 506.632 154.335 507.412 154.455 507.94C154.599 508.468 154.827 508.84 155.139 509.056C155.451 509.272 155.907 509.404 156.507 509.452C156.627 509.836 156.687 510.376 156.687 511.072C155.391 511.024 154.323 511 153.483 511C152.355 511 151.263 511.024 150.207 511.072C150.207 510.376 150.267 509.836 150.387 509.452C150.987 509.404 151.431 509.272 151.719 509.056C152.031 508.84 152.247 508.468 152.367 507.94C152.511 507.412 152.583 506.632 152.583 505.6V495.088L152.547 495.052C152.379 494.884 152.163 494.776 151.899 494.728C151.635 494.656 151.131 494.596 150.387 494.548C150.267 494.116 150.207 493.576 150.207 492.928C151.071 492.976 151.911 493 152.727 493C153.471 493 154.227 492.976 154.995 492.928L166.983 506.356V498.328C166.983 497.32 166.911 496.564 166.767 496.06C166.647 495.532 166.431 495.16 166.119 494.944C165.807 494.728 165.339 494.596 164.715 494.548C164.619 493.996 164.571 493.456 164.571 492.928C165.771 492.976 166.803 493 167.667 493Z" fill="#454545"/>
<path d="M176.152 511.072C176.152 510.328 176.212 509.788 176.332 509.452C176.932 509.404 177.376 509.308 177.664 509.164C177.976 509.02 178.192 508.768 178.312 508.408C178.432 508.048 178.492 507.508 178.492 506.788V497.176C178.492 496.48 178.432 495.952 178.312 495.592C178.192 495.232 177.976 494.98 177.664 494.836C177.376 494.692 176.932 494.596 176.332 494.548C176.212 494.188 176.152 493.648 176.152 492.928C177.688 492.976 179.032 493 180.184 493C181.144 493 182.464 492.976 184.144 492.928C184.144 493.672 184.096 494.212 184 494.548C183.136 494.596 182.548 494.788 182.236 495.124C181.948 495.46 181.804 496.144 181.804 497.176V506.788C181.804 507.82 181.948 508.516 182.236 508.876C182.548 509.212 183.136 509.404 184 509.452C184.096 509.812 184.144 510.352 184.144 511.072C182.512 511.024 181.192 511 180.184 511C178.984 511 177.64 511.024 176.152 511.072Z" fill="#454545"/>
<path d="M215.609 509.56C215.729 509.944 215.789 510.448 215.789 511.072C214.493 511.024 213.149 511 211.757 511C210.509 511 209.189 511.024 207.797 511.072C207.797 510.592 207.857 510.088 207.977 509.56C208.769 509.488 209.309 509.344 209.597 509.128C209.885 508.888 210.029 508.444 210.029 507.796C210.029 507.628 209.981 507.112 209.885 506.248L208.769 497.68L202.361 510.532C201.977 510.676 201.509 510.748 200.957 510.748L194.297 497.752L193.289 505.348C193.217 505.996 193.181 506.548 193.181 507.004C193.181 507.94 193.337 508.588 193.649 508.948C193.985 509.308 194.549 509.512 195.341 509.56C195.461 509.944 195.521 510.448 195.521 511.072C194.225 511.024 193.085 511 192.101 511C191.045 511 189.965 511.024 188.861 511.072C188.861 510.448 188.921 509.944 189.041 509.56C189.617 509.512 190.061 509.368 190.373 509.128C190.709 508.888 190.961 508.48 191.129 507.904C191.321 507.304 191.477 506.428 191.597 505.276L192.605 497.356C192.629 497.188 192.641 496.948 192.641 496.636C192.641 495.82 192.473 495.268 192.137 494.98C191.825 494.692 191.273 494.548 190.481 494.548C190.361 494.116 190.301 493.576 190.301 492.928C191.213 492.976 192.089 493 192.929 493C193.601 493 194.465 492.976 195.521 492.928L202.541 506.428L209.201 492.928C210.257 492.976 211.157 493 211.901 493C212.477 493 213.341 492.976 214.493 492.928C214.493 493.624 214.433 494.164 214.313 494.548C213.593 494.548 213.053 494.716 212.693 495.052C212.333 495.364 212.153 495.904 212.153 496.672C212.153 496.984 212.165 497.236 212.189 497.428L213.305 505.924C213.449 506.956 213.593 507.712 213.737 508.192C213.905 508.672 214.121 509.008 214.385 509.2C214.673 509.392 215.081 509.512 215.609 509.56Z" fill="#454545"/>
<path d="M238.879 509.452C238.999 509.812 239.059 510.352 239.059 511.072C238.099 511.024 236.863 511 235.351 511C233.767 511 232.495 511.024 231.535 511.072C231.535 510.328 231.607 509.788 231.751 509.452C232.303 509.38 232.687 509.284 232.903 509.164C233.143 509.02 233.263 508.816 233.263 508.552C233.263 508.336 233.143 507.964 232.903 507.436L232.183 505.888C228.727 505.888 226.003 505.948 224.011 506.068L223.615 507.004C223.375 507.556 223.255 507.988 223.255 508.3C223.255 508.972 223.747 509.356 224.731 509.452C224.875 509.884 224.947 510.424 224.947 511.072C224.035 511.024 223.039 511 221.959 511C221.023 511 220.171 511.024 219.403 511.072C219.403 510.496 219.475 509.956 219.619 509.452C220.147 509.356 220.555 509.14 220.843 508.804C221.131 508.444 221.515 507.736 221.995 506.68L228.187 492.964C228.643 492.868 229.123 492.82 229.627 492.82L236.251 506.572C236.779 507.676 237.223 508.42 237.583 508.804C237.967 509.188 238.399 509.404 238.879 509.452ZM231.463 504.412L229.303 499.876C228.679 498.604 228.247 497.596 228.007 496.852C227.815 497.452 227.575 498.052 227.287 498.652C227.023 499.228 226.855 499.588 226.783 499.732L224.731 504.412H231.463Z" fill="#454545"/>
<path d="M258.3 492.928C258.228 494.224 258.312 495.784 258.552 497.608C258.048 497.824 257.46 497.932 256.788 497.932C256.74 496.78 256.428 495.928 255.852 495.376C255.3 494.824 254.424 494.548 253.224 494.548H251.64V506.896C251.64 507.64 251.7 508.192 251.82 508.552C251.964 508.888 252.204 509.128 252.54 509.272C252.9 509.416 253.44 509.512 254.16 509.56C254.28 509.848 254.34 510.352 254.34 511.072C252.564 511.024 251.112 511 249.984 511C248.592 511 247.104 511.024 245.52 511.072C245.52 510.352 245.58 509.848 245.7 509.56C246.42 509.512 246.96 509.416 247.32 509.272C247.704 509.128 247.968 508.876 248.112 508.516C248.256 508.156 248.328 507.616 248.328 506.896V494.548H246.852C245.892 494.548 245.148 494.68 244.62 494.944C244.116 495.184 243.744 495.532 243.504 495.988C243.264 496.444 243.06 497.092 242.892 497.932C242.124 497.932 241.56 497.824 241.2 497.608C241.56 495.976 241.74 494.416 241.74 492.928C242.988 492.976 245.736 493 249.984 493C254.304 493 257.076 492.976 258.3 492.928Z" fill="#454545"/>
<path d="M277.641 505.888C278.289 506.008 278.817 506.272 279.225 506.68C278.793 507.808 278.469 509.26 278.253 511.036L271.305 511C267.849 511 265.065 511.024 262.953 511.072C262.953 510.328 263.013 509.788 263.133 509.452C263.733 509.404 264.177 509.308 264.465 509.164C264.777 509.02 264.993 508.756 265.113 508.372C265.233 507.988 265.293 507.412 265.293 506.644V497.176C265.293 496.48 265.221 495.952 265.077 495.592C264.957 495.232 264.741 494.98 264.429 494.836C264.141 494.692 263.709 494.596 263.133 494.548C263.013 494.188 262.953 493.648 262.953 492.928C264.681 492.976 266.565 493 268.605 493C273.021 493 275.973 492.976 277.461 492.928C277.725 495.184 277.953 496.672 278.145 497.392C277.737 497.656 277.197 497.788 276.525 497.788C276.429 496.78 276.009 495.988 275.265 495.412C274.545 494.836 273.261 494.548 271.413 494.548H268.605V501.172H270.405C271.677 501.172 272.553 501.028 273.033 500.74C273.537 500.452 273.801 499.924 273.825 499.156C274.353 498.988 274.905 498.904 275.481 498.904C275.433 499.504 275.409 500.512 275.409 501.928C275.409 503.464 275.433 504.508 275.481 505.06C274.833 505.06 274.305 504.988 273.897 504.844C273.825 504.052 273.537 503.512 273.033 503.224C272.553 502.936 271.677 502.792 270.405 502.792H268.605V506.572C268.605 507.34 268.677 507.928 268.821 508.336C268.989 508.72 269.265 508.996 269.649 509.164C270.057 509.308 270.657 509.38 271.449 509.38H271.665C273.057 509.38 274.125 509.26 274.869 509.02C275.637 508.78 276.201 508.432 276.561 507.976C276.945 507.496 277.305 506.8 277.641 505.888Z" fill="#454545"/>
</g>
</g>
<g id="magic-set">
<g id="magic-icon">
<g id="magic-icon-wand">
<rect id="Rectangle 12" x="423.142" y="283.363" width="7.48801" height="65.827" rx="1" transform="rotate(39.6594 423.142 283.363)" fill="#454545" stroke="#454545" stroke-width="2"/>
<rect id="Rectangle 13" x="423.26" y="284.627" width="5.69281" height="4.744" transform="rotate(39.6594 423.26 284.627)" fill="white"/>
</g>
<path id="magic-icon-leftStem" d="M424.079 284C425.845 280.22 427.698 272.5 427.698 268.3C427.698 264.1 426.991 259.48 425.579 257.5" stroke="#454545" stroke-width="2"/>
<path id="magic-icon-rightStem" d="M428.366 287.411C431.096 285.176 438.421 282.315 442.624 282.315C447.078 282.315 448.579 282.5 452.079 283" stroke="#454545" stroke-width="2"/>
<path id="magic-icon-centerStem" d="M426 286L453.5 253" stroke="#454545" stroke-width="2"/>
<g id="magic-icon-rightFlower">
<path id="magic-icon-rightFlower-p6" d="M440.4 289.665C444.604 296.947 449.801 290.132 451.874 285.814L449.472 281.653C444.696 281.289 436.196 282.382 440.4 289.665Z" fill="#FFAF66" stroke="#454545"/>
<path id="magic-icon-rightFlower-p5" d="M440.4 273.523C436.196 280.805 444.696 281.898 449.472 281.535L451.875 277.373C449.802 273.056 444.605 266.241 440.4 273.523Z" fill="#FFAF66" stroke="#454545"/>
<path id="magic-icon-rightFlower-p4" d="M454.362 265.565C445.956 265.565 449.259 273.572 451.961 277.575H456.764C459.466 273.572 462.768 265.565 454.362 265.565Z" fill="#FFAF66" stroke="#454545"/>
<path id="magic-icon-rightFlower-p3" d="M454.362 298.435C462.768 298.435 459.465 290.007 456.763 285.793H451.96C449.258 290.007 445.956 298.435 454.362 298.435Z" fill="#FFAF66" stroke="#454545"/>
<path id="magic-icon-rightFlower-p2" d="M468.391 289.665C472.596 282.383 464.095 281.289 459.319 281.653L456.917 285.814C458.99 290.132 464.187 296.947 468.391 289.665Z" fill="#FFAF66" stroke="#454545"/>
<path id="magic-icon-rightFlower-p1" d="M468.392 273.523C464.187 266.241 458.99 273.056 456.917 277.373L459.32 281.535C464.095 281.898 472.596 280.805 468.392 273.523Z" fill="#FFAF66" stroke="#454545"/>
<path id="magic-icon-rightFlower-3c" d="M459.867 282C459.867 284.841 457.428 287.189 454.362 287.189C451.296 287.189 448.857 284.841 448.857 282C448.857 279.159 451.296 276.811 454.362 276.811C457.428 276.811 459.867 279.159 459.867 282Z" fill="white" stroke="#454545"/>
</g>
<g id="magic-icon-leftFlower">
<path id="magic-icon-leftFlower-2p6" d="M405.919 258.928C410.268 266.46 415.643 259.411 417.788 254.945L415.303 250.641C410.363 250.265 401.57 251.396 405.919 258.928Z" fill="#FFAF66" stroke="#454545"/>
<path id="magic-icon-leftFlower-2p5" d="M405.919 242.231C401.571 249.764 410.363 250.895 415.303 250.519L417.788 246.214C415.644 241.748 410.268 234.699 405.919 242.231Z" fill="#FFAF66" stroke="#454545"/>
<path id="magic-icon-leftFlower-2p4" d="M420.361 234C411.666 234 415.082 242.282 417.877 246.423H422.845C425.64 242.282 429.056 234 420.361 234Z" fill="#FFAF66" stroke="#454545"/>
<path id="magic-icon-leftFlower-2p3" d="M420.361 268C429.056 268 425.64 259.282 422.845 254.923H417.877C415.082 259.282 411.666 268 420.361 268Z" fill="#FFAF66" stroke="#454545"/>
<path id="magic-icon-leftFlower-2p2" d="M434.872 258.928C439.221 251.396 430.428 250.265 425.489 250.641L423.003 254.945C425.148 259.411 430.523 266.46 434.872 258.928Z" fill="#FFAF66" stroke="#454545"/>
<path id="magic-icon-leftFlower-2p1" d="M434.873 242.232C430.524 234.699 425.148 241.748 423.004 246.215L425.489 250.519C430.429 250.895 439.221 249.764 434.873 242.232Z" fill="#FFAF66" stroke="#454545"/>
<path id="magic-icon-leftFlower-2c" d="M426.072 251C426.072 253.949 423.541 256.384 420.361 256.384C417.181 256.384 414.649 253.949 414.649 251C414.649 248.051 417.181 245.615 420.361 245.615C423.541 245.615 426.072 248.051 426.072 251Z" fill="white" stroke="#454545"/>
</g>
<g id="magic-icon-centerFlower">
<path id="magic-icon-centerFlower-1p6" d="M434.512 260.793C439.885 270.098 446.525 261.39 449.174 255.873L446.104 250.556C440.002 250.092 429.14 251.489 434.512 260.793Z" fill="#FFAF66" stroke="#454545"/>
<path id="magic-icon-centerFlower-1p5" d="M434.513 240.168C429.141 249.473 440.002 250.87 446.104 250.405L449.174 245.088C446.525 239.571 439.885 230.864 434.513 240.168Z" fill="#FFAF66" stroke="#454545"/>
<path id="magic-icon-centerFlower-1p4" d="M452.353 230C441.612 230 445.832 240.231 449.284 245.346H455.421C458.874 240.231 463.093 230 452.353 230Z" fill="#FFAF66" stroke="#454545"/>
<path id="magic-icon-centerFlower-1p3" d="M452.352 272C463.093 272 458.874 261.231 455.421 255.846H449.284C445.831 261.231 441.612 272 452.352 272Z" fill="#FFAF66" stroke="#454545"/>
<path id="magic-icon-centerFlower-1p2" d="M470.278 260.793C475.65 251.489 464.789 250.092 458.687 250.557L455.617 255.873C458.266 261.39 464.906 270.098 470.278 260.793Z" fill="#FFAF66" stroke="#454545"/>
<path id="magic-icon-centerFlower-1p1" d="M470.279 240.168C464.906 230.864 458.266 239.572 455.617 245.088L458.687 250.405C464.789 250.87 475.651 249.473 470.279 240.168Z" fill="#FFAF66" stroke="#454545"/>
<path id="magic-icon-centerFlower-1c" d="M459.526 251C459.526 254.713 456.34 257.769 452.353 257.769C448.365 257.769 445.18 254.713 445.18 251C445.18 247.287 448.365 244.231 452.353 244.231C456.34 244.231 459.526 247.287 459.526 251Z" fill="white" stroke="#454545"/>
</g>
</g>
<g id="magic-word">
<path d="M389.748 372.461C389.868 372.845 389.928 373.349 389.928 373.973C388.632 373.925 387.288 373.901 385.896 373.901C384.648 373.901 383.328 373.925 381.936 373.973C381.936 373.493 381.996 372.989 382.116 372.461C382.908 372.389 383.448 372.245 383.736 372.029C384.024 371.789 384.168 371.345 384.168 370.697C384.168 370.529 384.12 370.013 384.024 369.149L382.908 360.581L376.5 373.433C376.116 373.577 375.648 373.649 375.096 373.649L368.436 360.653L367.428 368.249C367.356 368.897 367.32 369.449 367.32 369.905C367.32 370.841 367.476 371.489 367.788 371.849C368.124 372.209 368.688 372.413 369.48 372.461C369.6 372.845 369.66 373.349 369.66 373.973C368.364 373.925 367.224 373.901 366.24 373.901C365.184 373.901 364.104 373.925 363 373.973C363 373.349 363.06 372.845 363.18 372.461C363.756 372.413 364.2 372.269 364.512 372.029C364.848 371.789 365.1 371.381 365.268 370.805C365.46 370.205 365.616 369.329 365.736 368.177L366.744 360.257C366.768 360.089 366.78 359.849 366.78 359.537C366.78 358.721 366.612 358.169 366.276 357.881C365.964 357.593 365.412 357.449 364.62 357.449C364.5 357.017 364.44 356.477 364.44 355.829C365.352 355.877 366.228 355.901 367.068 355.901C367.74 355.901 368.604 355.877 369.66 355.829L376.68 369.329L383.34 355.829C384.396 355.877 385.296 355.901 386.04 355.901C386.616 355.901 387.48 355.877 388.632 355.829C388.632 356.525 388.572 357.065 388.452 357.449C387.732 357.449 387.192 357.617 386.832 357.953C386.472 358.265 386.292 358.805 386.292 359.573C386.292 359.885 386.304 360.137 386.328 360.329L387.444 368.825C387.588 369.857 387.732 370.613 387.876 371.093C388.044 371.573 388.26 371.909 388.524 372.101C388.812 372.293 389.22 372.413 389.748 372.461Z" fill="#454545"/>
<path d="M413.018 372.353C413.138 372.713 413.198 373.253 413.198 373.973C412.238 373.925 411.002 373.901 409.49 373.901C407.906 373.901 406.634 373.925 405.674 373.973C405.674 373.229 405.746 372.689 405.89 372.353C406.442 372.281 406.826 372.185 407.042 372.065C407.282 371.921 407.402 371.717 407.402 371.453C407.402 371.237 407.282 370.865 407.042 370.337L406.322 368.789C402.866 368.789 400.142 368.849 398.15 368.969L397.754 369.905C397.514 370.457 397.394 370.889 397.394 371.201C397.394 371.873 397.886 372.257 398.87 372.353C399.014 372.785 399.086 373.325 399.086 373.973C398.174 373.925 397.178 373.901 396.098 373.901C395.162 373.901 394.31 373.925 393.542 373.973C393.542 373.397 393.614 372.857 393.758 372.353C394.286 372.257 394.694 372.041 394.982 371.705C395.27 371.345 395.654 370.637 396.134 369.581L402.326 355.865C402.782 355.769 403.262 355.721 403.766 355.721L410.39 369.473C410.918 370.577 411.362 371.321 411.722 371.705C412.106 372.089 412.538 372.305 413.018 372.353ZM405.602 367.313L403.442 362.777C402.818 361.505 402.386 360.497 402.146 359.753C401.954 360.353 401.714 360.953 401.426 361.553C401.162 362.129 400.994 362.489 400.922 362.633L398.87 367.313H405.602Z" fill="#454545"/>
<path d="M426.562 374.153C424.498 374.153 422.674 373.757 421.09 372.965C419.506 372.173 418.27 371.069 417.382 369.653C416.518 368.213 416.086 366.569 416.086 364.721C416.086 362.801 416.602 361.169 417.634 359.825C418.666 358.457 420.022 357.425 421.702 356.729C423.382 356.033 425.182 355.685 427.102 355.685C428.566 355.685 429.958 355.805 431.278 356.045C432.622 356.261 433.75 356.573 434.662 356.981C434.446 357.893 434.338 359.273 434.338 361.121C433.906 361.313 433.294 361.409 432.502 361.409C432.43 359.897 431.938 358.829 431.026 358.205C430.114 357.581 428.878 357.269 427.318 357.269C425.662 357.269 424.258 357.581 423.106 358.205C421.978 358.829 421.138 359.669 420.586 360.725C420.034 361.757 419.758 362.885 419.758 364.109C419.758 366.557 420.394 368.549 421.666 370.085C422.962 371.621 424.798 372.389 427.174 372.389C427.918 372.389 428.494 372.377 428.902 372.353C429.31 372.329 429.73 372.257 430.162 372.137C430.546 372.041 430.822 371.861 430.99 371.597C431.158 371.309 431.242 370.841 431.242 370.193V369.077C431.242 368.381 431.182 367.889 431.062 367.601C430.942 367.289 430.702 367.085 430.342 366.989C429.982 366.869 429.394 366.797 428.578 366.773C428.434 366.341 428.362 365.789 428.362 365.117C428.914 365.165 430.222 365.189 432.286 365.189C434.326 365.189 435.586 365.165 436.066 365.117C436.066 365.789 436.006 366.341 435.886 366.773C435.43 366.797 435.106 366.869 434.914 366.989C434.722 367.085 434.59 367.277 434.518 367.565C434.446 367.829 434.41 368.261 434.41 368.861V369.761C434.41 370.313 434.434 370.757 434.482 371.093C434.554 371.405 434.674 371.741 434.842 372.101C433.882 372.725 432.682 373.229 431.242 373.613C429.826 373.973 428.266 374.153 426.562 374.153Z" fill="#454545"/>
<path d="M441.873 373.973C441.873 373.229 441.933 372.689 442.053 372.353C442.653 372.305 443.097 372.209 443.385 372.065C443.697 371.921 443.913 371.669 444.033 371.309C444.153 370.949 444.213 370.409 444.213 369.689V360.077C444.213 359.381 444.153 358.853 444.033 358.493C443.913 358.133 443.697 357.881 443.385 357.737C443.097 357.593 442.653 357.497 442.053 357.449C441.933 357.089 441.873 356.549 441.873 355.829C443.409 355.877 444.753 355.901 445.905 355.901C446.865 355.901 448.185 355.877 449.865 355.829C449.865 356.573 449.817 357.113 449.721 357.449C448.857 357.497 448.269 357.689 447.957 358.025C447.669 358.361 447.525 359.045 447.525 360.077V369.689C447.525 370.721 447.669 371.417 447.957 371.777C448.269 372.113 448.857 372.305 449.721 372.353C449.817 372.713 449.865 373.253 449.865 373.973C448.233 373.925 446.913 373.901 445.905 373.901C444.705 373.901 443.361 373.925 441.873 373.973Z" fill="#454545"/>
<path d="M472.222 357.053C471.982 357.965 471.862 359.333 471.862 361.157C471.406 361.373 470.806 361.481 470.062 361.481C469.99 359.921 469.558 358.829 468.766 358.205C467.998 357.557 466.882 357.233 465.418 357.233C463.018 357.233 461.218 357.893 460.018 359.213C458.818 360.533 458.218 362.153 458.218 364.073C458.218 365.585 458.53 366.953 459.154 368.177C459.802 369.377 460.714 370.325 461.89 371.021C463.09 371.717 464.506 372.065 466.138 372.065C467.122 372.065 468.13 371.957 469.162 371.741C470.194 371.501 471.142 371.165 472.006 370.733C472.15 370.853 472.282 371.033 472.402 371.273C472.522 371.489 472.594 371.693 472.618 371.885C471.274 372.653 470.002 373.229 468.802 373.613C467.602 373.973 466.246 374.153 464.734 374.153C462.766 374.153 461.014 373.757 459.478 372.965C457.942 372.173 456.742 371.069 455.878 369.653C455.014 368.237 454.582 366.617 454.582 364.793C454.582 362.849 455.074 361.193 456.058 359.825C457.042 358.433 458.338 357.389 459.946 356.693C461.578 355.997 463.33 355.649 465.202 355.649C466.474 355.649 467.662 355.769 468.766 356.009C469.87 356.225 471.022 356.573 472.222 357.053Z" fill="#454545"/>
</g>
</g>
</g>
</svg>
